<svg id="Capa_1" data-name="Capa 1" xmlns="http://www.w3.org/2000/svg" viewBox="0 0 96 30.47"><path d="M18.44,38a6.52,6.52,0,0,1,2.41,1.35.51.51,0,0,1,.12.2.36.36,0,0,1-.09.19,3.91,3.91,0,0,1-1.44.83A28.46,28.46,0,0,1,12.25,42c-.55,0-1.1,0-1.66.08a1.35,1.35,0,0,0-.28,0c0-.41-.08-.81-.12-1.21A2,2,0,0,0,7.85,39a2.21,2.21,0,0,0-1.51,1,6,6,0,0,0-1.2-1.43C9.08,36.55,14.36,36.65,18.44,38Zm4.18,12.51a4.09,4.09,0,0,1-3,1,26.67,26.67,0,0,1-4.19-.19,30.47,30.47,0,0,1-4.24-.8l-.32-.09c0-1.26-.11-2.51-.2-3.77,0-.32-.05-.64-.07-1h.1q.64,0,1.29-.06a21.28,21.28,0,0,1,6.94,1C20.17,47,24.22,48.59,22.62,50.48ZM.9,40.28a4.33,4.33,0,0,1,2.21,2.11,2.18,2.18,0,0,0,3.49,0A16.15,16.15,0,0,1,7.84,46.7,23.65,23.65,0,0,1,8,49.5c-.34-.11-.69-.21-1-.29A2.06,2.06,0,0,0,5.44,53c3.23,1.84,7.61,2.37,11.28,2.55,3.51.19,8,0,9.71-3.58,1.86-3.72-1.39-7-4.69-8.25l-.59-.22a8.15,8.15,0,0,0,1.05-.59,4,4,0,0,0,1.95-4,5,5,0,0,0-2.79-3.07,19.93,19.93,0,0,0-10.09-1.78A20.51,20.51,0,0,0,.83,37.26C-.15,37.93-.42,39.74.9,40.28Z" transform="translate(0 -32.77)"/><path d="M57.9,53.65c-1.3-.78-1.38-2.32-1.63-3.7s-.44-2.51-.63-3.76c-.1-.72-.21-1.42-.32-2.13a30.22,30.22,0,0,1-1.86,3c-1.85,2.64-4.49,6.25-8.18,5.75-1.8-.24-3-1.45-4-2.83a49.79,49.79,0,0,1-2.89-4.54c-.39-.65-.78-1.31-1.16-2a19.59,19.59,0,0,1-3.14,10.44,2,2,0,0,1-2.15.88A1.92,1.92,0,0,1,30.56,53a36.82,36.82,0,0,0,.2-7,1.9,1.9,0,0,1,1.88-1.87,1.79,1.79,0,0,1,.78.17A32.35,32.35,0,0,0,32.84,35a1.79,1.79,0,0,1,1-2.09,1.76,1.76,0,0,1,2.23.73q1.95,4.45,4.32,8.71c.79,1.42,1.64,2.8,2.52,4.16.58.91,1.27,2.36,2.4,2.71s1.93-.64,2.56-1.29a21.19,21.19,0,0,0,2.59-3.38,32.21,32.21,0,0,0,3.74-8c.74-2.38,4.44-1.38,3.74,1l-.18.63c.48,2.33,1,4.66,1.57,7,.3,1.24.56,2.48.83,3.72s.9,3,0,4.16A1.74,1.74,0,0,1,57.9,53.65Z" transform="translate(0 -32.77)"/><path d="M69.2,34.63c2,2.07,4.52,3.63,6.75,5.4l2.34,1.91c1.45-1.08,2.88-2.19,4.31-3.3a28.42,28.42,0,0,1,5.31-3.58c2.65-1.23,4.74,2.81,2.08,4a41.57,41.57,0,0,0-5.36,3.28c-1.08.71-2.16,1.43-3.23,2.16l1.42,1.24c2,1.7,3.84,3.46,5.68,5.26a2,2,0,0,1,.7-.56,2.18,2.18,0,0,1,2.92.93,57.15,57.15,0,0,0,3.6,7.22C97,60.73,93.84,62.8,92.26,61A146.3,146.3,0,0,0,80.05,48.83c-.71-.63-1.42-1.24-2.14-1.84-3.15,2.22-6.31,4.44-9.51,6.62-1.66,1.13-3.61-1.68-2-2.9,2.8-2.11,5.61-4.18,8.44-6.24l-1.19-.94c-2.2-1.69-4.52-3.78-7.09-4.86a2.49,2.49,0,1,1,2.64-4Z" transform="translate(0 -32.77)"/><path d="M4.16,63.23c-.29-.06-.43-.17-.4-.32A1.14,1.14,0,0,1,4,62.42a2.47,2.47,0,0,1,.47-.51l.44-.37a8.37,8.37,0,0,1,.9-.8,16.48,16.48,0,0,1,1.38-1,13.67,13.67,0,0,1,1.59-.88,5,5,0,0,1,1.71-.45c3.76-.14,7.53-.34,11.29-.6S29.27,57.29,33,57s7.49-.56,11.26-.82,7.53-.47,11.3-.63c2.07-.08,4.22-.15,6.44-.19s4.41,0,6.56.08,4.25.27,6.3.54a39.8,39.8,0,0,1,5.83,1.2l-.33.53a6.36,6.36,0,0,1-.4.55c-.29.23-.64.47-1,.74a8.35,8.35,0,0,1-1.19.65v.06s-.07,0-.07,0,0,0-.08,0a1.83,1.83,0,0,1-1.37.06.59.59,0,0,1,.07-.31,51.2,51.2,0,0,0-5.32-.6c-1.81-.11-3.65-.17-5.51-.18s-3.72,0-5.57.09l-5.47.2q-6.45.24-12.71.77t-12.5,1.15L16.72,62.14q-6.27.63-12.56,1.09" transform="translate(0 -32.77)"/></svg>