<?xml version="1.0" encoding="utf-8"?>
<!-- Generator: Adobe Illustrator 24.3.0, SVG Export Plug-In . SVG Version: 6.00 Build 0)  -->
<svg version="1.1" xmlns="http://www.w3.org/2000/svg" xmlns:xlink="http://www.w3.org/1999/xlink" x="0px" y="0px"
	 viewBox="0 0 252.04 37.35" style="enable-background:new 0 0 252.04 37.35;" xml:space="preserve">
<style type="text/css">
	.st0{fill:#F6F6F6;}
	.st1{fill:#FFFFFF;}
</style>
<g id="Ebene_2">
	<rect x="-387.44" y="58.74" class="st0" width="283.46" height="98.49"/>
	<rect x="-387.44" y="-53.92" class="st0" width="283.46" height="98.49"/>
</g>
<g id="Ebene_1">
	<g>
		<polygon points="-231.12,86.72 -251.35,86.72 -251.35,92.34 -244.42,92.34 -244.42,129.26 -238.1,129.26 -238.1,92.34 
			-231.12,92.34 		"/>
		<rect x="-256.95" y="108.21" width="5.6" height="5.62"/>
		<path d="M-271.06,111.93c-0.17,1.05-0.05,2.05-0.22,3.9c-0.17-1.85-0.06-2.85-0.23-3.9l-3.65-25.22h-5.21l-3.67,25.22
			c-0.16,0.95-0.05,2.05-0.22,3.9c-0.17-1.85-0.06-2.95-0.23-3.9l-3.26-25.22h-6.44l6.21,42.54h6.21l3.77-24.06
			c0.16-0.89,0.05-2.06,0.23-3.9c0.16,1.84,0.05,3,0.21,3.9l3.78,24.06h6.2l6.21-42.54h-6.43L-271.06,111.93z"/>
		<rect x="-231.12" y="108.21" width="5.59" height="5.62"/>
		<path d="M-201.12,86.72h-16.56v42.54h6.32v-15.43h10.24c2.5,0,3.89-1.45,3.89-3.96V90.61C-197.24,88-198.51,86.72-201.12,86.72z
			 M-203.61,108.38h-7.76V92.18h7.76V108.38z"/>
	</g>
	<path d="M-129.59-10.52v-4.94l-0.08-3.25h0.16l3.25,6.08l3.21-6.08h0.16l-0.04,3.25v4.94h1.8v-10.94h-2.35l-2.67,5.21h-0.12
		l-2.7-5.21h-2.47v10.94H-129.59z M-136.96-10.52v-9.17h3.49v-1.76h-8.98v1.76h3.53v9.17H-136.96z M-149.4-10.55
		c0.98,1.08,1.47,2.51,1.47,4.3v0.43h-11.17v-0.27c0-0.88,0.14-1.69,0.43-2.44c0.29-0.74,0.69-1.38,1.2-1.93
		c0.51-0.55,1.12-0.97,1.82-1.27c0.71-0.3,1.49-0.45,2.35-0.45C-151.68-12.16-150.38-11.62-149.4-10.55 M-148.37,5.1
		c1.38-0.85,2.4-1.98,3.06-3.37l-2.23-1.62c-0.52,1.12-1.26,1.99-2.21,2.59c-0.95,0.6-2.07,0.9-3.35,0.9
		c-0.94,0-1.78-0.16-2.53-0.47c-0.74-0.31-1.37-0.74-1.88-1.29c-0.51-0.55-0.9-1.2-1.18-1.94c-0.27-0.74-0.41-1.55-0.41-2.41v-0.94
		h14.54v-1.48c0-1.43-0.2-2.75-0.61-3.95c-0.41-1.2-0.99-2.23-1.74-3.11c-0.76-0.87-1.67-1.56-2.74-2.05
		c-1.07-0.49-2.29-0.74-3.65-0.74c-1.39,0-2.63,0.25-3.74,0.74c-1.11,0.5-2.06,1.21-2.86,2.14c-0.8,0.93-1.41,2.05-1.84,3.35
		c-0.43,1.31-0.65,2.76-0.65,4.35c0,1.62,0.22,3.08,0.65,4.37c0.43,1.29,1.04,2.4,1.84,3.33c0.8,0.93,1.75,1.64,2.86,2.14
		c1.11,0.5,2.36,0.74,3.74,0.74C-151.4,6.38-149.75,5.95-148.37,5.1 M-165.06,5.91V3.13h-2.98V-23.1h-3.14V2.66
		c0,0.94,0.28,1.72,0.84,2.33c0.56,0.61,1.39,0.92,2.49,0.92H-165.06z M-187.19,3.32c-0.64-0.18-1.2-0.45-1.67-0.81
		c-0.47-0.35-0.84-0.79-1.12-1.3s-0.41-1.1-0.41-1.75V-8.1c0-0.55,0.14-1.07,0.41-1.56c0.27-0.49,0.65-0.9,1.12-1.24
		c0.47-0.34,1.03-0.61,1.67-0.81c0.64-0.2,1.31-0.3,2.02-0.3c1.78,0,3.18,0.56,4.19,1.67c1.02,1.12,1.53,2.58,1.53,4.39v3.47
		c0,1.81-0.51,3.28-1.53,4.39c-1.02,1.12-2.42,1.67-4.19,1.67C-185.88,3.6-186.55,3.5-187.19,3.32 M-193.52,13.75h3.14V2.65h0.16
		c1.2,2.48,3.18,3.73,5.92,3.73c1.25,0,2.39-0.25,3.41-0.74c1.02-0.5,1.89-1.2,2.61-2.12c0.72-0.91,1.27-2.02,1.65-3.33
		c0.38-1.31,0.57-2.77,0.57-4.39c0-1.62-0.19-3.08-0.57-4.39c-0.38-1.31-0.93-2.42-1.65-3.33c-0.72-0.91-1.59-1.62-2.61-2.12
		c-1.02-0.5-2.16-0.74-3.41-0.74c-1.41,0-2.62,0.3-3.63,0.91c-1.01,0.61-1.77,1.55-2.29,2.81h-0.16v-3.26h-3.14V13.75z
		 M-211.59,2.03c-1.07-1.04-1.61-2.64-1.61-4.78v-2.9c0-2.14,0.54-3.74,1.61-4.78c1.07-1.04,2.46-1.57,4.16-1.57
		c1.7,0,3.08,0.52,4.16,1.57c1.07,1.05,1.61,2.64,1.61,4.78v2.9c0,2.14-0.54,3.74-1.61,4.78c-1.07,1.05-2.46,1.57-4.16,1.57
		C-209.14,3.6-210.52,3.07-211.59,2.03 M-203.73,5.63c1.11-0.5,2.07-1.21,2.88-2.14c0.81-0.93,1.44-2.04,1.88-3.33
		c0.44-1.29,0.67-2.75,0.67-4.37c0-1.59-0.22-3.04-0.67-4.35c-0.44-1.31-1.07-2.42-1.88-3.35c-0.81-0.93-1.77-1.64-2.88-2.14
		c-1.11-0.5-2.35-0.74-3.7-0.74c-1.36,0-2.6,0.25-3.72,0.74c-1.12,0.5-2.08,1.21-2.88,2.14c-0.8,0.93-1.42,2.05-1.86,3.35
		c-0.44,1.31-0.67,2.76-0.67,4.35c0,1.62,0.22,3.08,0.67,4.37c0.44,1.29,1.06,2.4,1.86,3.33c0.8,0.93,1.76,1.64,2.88,2.14
		c1.12,0.5,2.36,0.74,3.72,0.74C-206.08,6.38-204.84,6.13-203.73,5.63 M-224.7-10.55c0.98,1.08,1.47,2.51,1.47,4.3v0.43h-11.17
		v-0.27c0-0.88,0.14-1.69,0.43-2.44c0.29-0.74,0.69-1.38,1.2-1.93c0.51-0.55,1.12-0.97,1.82-1.27c0.71-0.3,1.49-0.45,2.35-0.45
		C-226.99-12.16-225.68-11.62-224.7-10.55 M-223.67,5.1c1.38-0.85,2.4-1.98,3.06-3.37l-2.23-1.62c-0.52,1.12-1.26,1.99-2.21,2.59
		c-0.95,0.6-2.07,0.9-3.35,0.9c-0.94,0-1.78-0.16-2.53-0.47c-0.74-0.31-1.37-0.74-1.88-1.29c-0.51-0.55-0.9-1.2-1.18-1.94
		c-0.27-0.74-0.41-1.55-0.41-2.41v-0.94h14.54v-1.48c0-1.43-0.2-2.75-0.61-3.95c-0.41-1.2-0.99-2.23-1.74-3.11
		c-0.76-0.87-1.67-1.56-2.74-2.05c-1.07-0.49-2.29-0.74-3.65-0.74c-1.39,0-2.63,0.25-3.74,0.74c-1.11,0.5-2.06,1.21-2.86,2.14
		c-0.8,0.93-1.41,2.05-1.84,3.35c-0.43,1.31-0.65,2.76-0.65,4.35c0,1.62,0.22,3.08,0.65,4.37c0.43,1.29,1.04,2.4,1.84,3.33
		c0.8,0.93,1.75,1.64,2.86,2.14c1.11,0.5,2.36,0.74,3.74,0.74C-226.7,6.38-225.05,5.95-223.67,5.1 M-252.22,3.32
		c-0.64-0.18-1.2-0.45-1.67-0.81c-0.47-0.35-0.84-0.79-1.12-1.3s-0.41-1.1-0.41-1.75V-8.1c0-0.55,0.14-1.07,0.41-1.56
		c0.27-0.49,0.65-0.9,1.12-1.24c0.47-0.34,1.03-0.61,1.67-0.81c0.64-0.2,1.31-0.3,2.02-0.3c1.78,0,3.18,0.56,4.19,1.67
		c1.02,1.12,1.53,2.58,1.53,4.39v3.47c0,1.81-0.51,3.28-1.53,4.39c-1.02,1.12-2.42,1.67-4.19,1.67
		C-250.91,3.6-251.58,3.5-252.22,3.32 M-258.55,13.75h3.14V2.65h0.16c1.2,2.48,3.18,3.73,5.92,3.73c1.25,0,2.39-0.25,3.41-0.74
		c1.02-0.5,1.89-1.2,2.61-2.12c0.72-0.91,1.27-2.02,1.65-3.33c0.38-1.31,0.57-2.77,0.57-4.39c0-1.62-0.19-3.08-0.57-4.39
		c-0.38-1.31-0.93-2.42-1.65-3.33c-0.72-0.91-1.59-1.62-2.61-2.12c-1.02-0.5-2.16-0.74-3.41-0.74c-1.41,0-2.62,0.3-3.63,0.91
		c-1.01,0.61-1.77,1.55-2.29,2.81h-0.16v-3.26h-3.14V13.75z M-268.18-10.55c0.98,1.08,1.47,2.51,1.47,4.3v0.43h-11.17v-0.27
		c0-0.88,0.14-1.69,0.43-2.44c0.29-0.74,0.69-1.38,1.2-1.93c0.51-0.55,1.12-0.97,1.82-1.27c0.71-0.3,1.49-0.45,2.35-0.45
		C-270.46-12.16-269.16-11.62-268.18-10.55 M-267.14,5.1c1.38-0.85,2.4-1.98,3.06-3.37l-2.23-1.62c-0.52,1.12-1.26,1.99-2.21,2.59
		c-0.95,0.6-2.07,0.9-3.35,0.9c-0.94,0-1.78-0.16-2.53-0.47c-0.74-0.31-1.37-0.74-1.88-1.29s-0.9-1.2-1.18-1.94
		c-0.27-0.74-0.41-1.55-0.41-2.41v-0.94h14.54v-1.48c0-1.43-0.2-2.75-0.61-3.95c-0.41-1.2-0.99-2.23-1.74-3.11
		c-0.76-0.87-1.67-1.56-2.74-2.05c-1.07-0.49-2.29-0.74-3.65-0.74c-1.39,0-2.63,0.25-3.74,0.74c-1.11,0.5-2.06,1.21-2.86,2.14
		c-0.8,0.93-1.41,2.05-1.84,3.35c-0.43,1.31-0.65,2.76-0.65,4.35c0,1.62,0.22,3.08,0.65,4.37c0.43,1.29,1.04,2.4,1.84,3.33
		c0.8,0.93,1.75,1.64,2.86,2.14c1.11,0.5,2.36,0.74,3.74,0.74C-270.17,6.38-268.52,5.95-267.14,5.1 M-301.55,5.91h3.14V-8.16
		c0-0.65,0.14-1.22,0.41-1.71c0.27-0.48,0.65-0.88,1.12-1.2c0.47-0.31,1-0.55,1.59-0.71c0.59-0.16,1.2-0.24,1.82-0.24
		c3.06,0,4.59,1.82,4.59,5.46V5.91h3.14V-7.07c0-2.46-0.61-4.36-1.82-5.7c-1.22-1.35-2.87-2.02-4.96-2.02
		c-1.52,0-2.72,0.34-3.63,1.01c-0.9,0.67-1.6,1.58-2.1,2.72h-0.16V-23.1h-3.14V5.91z M-306.53,5.91V3.13h-4.12v-14.66h4.43v-2.78
		h-4.43v-5.61h-2.82v3.76c0,0.68-0.12,1.16-0.37,1.43c-0.25,0.27-0.71,0.41-1.39,0.41h-1.88v2.78h3.33V2.58
		c0,0.99,0.28,1.79,0.84,2.41c0.56,0.61,1.39,0.92,2.49,0.92H-306.53z M-324.55-10.55c0.98,1.08,1.47,2.51,1.47,4.3v0.43h-11.17
		v-0.27c0-0.88,0.14-1.69,0.43-2.44c0.29-0.74,0.69-1.38,1.2-1.93c0.51-0.55,1.12-0.97,1.82-1.27c0.71-0.3,1.49-0.45,2.35-0.45
		C-326.83-12.16-325.53-11.62-324.55-10.55 M-323.51,5.1c1.38-0.85,2.4-1.98,3.06-3.37l-2.23-1.62c-0.52,1.12-1.26,1.99-2.21,2.59
		c-0.95,0.6-2.07,0.9-3.35,0.9c-0.94,0-1.78-0.16-2.53-0.47c-0.74-0.31-1.37-0.74-1.88-1.29c-0.51-0.55-0.9-1.2-1.18-1.94
		c-0.27-0.74-0.41-1.55-0.41-2.41v-0.94h14.54v-1.48c0-1.43-0.2-2.75-0.61-3.95c-0.41-1.2-0.99-2.23-1.74-3.11
		c-0.76-0.87-1.67-1.56-2.74-2.05c-1.07-0.49-2.29-0.74-3.65-0.74c-1.39,0-2.63,0.25-3.74,0.74c-1.11,0.5-2.06,1.21-2.86,2.14
		c-0.8,0.93-1.41,2.05-1.84,3.35c-0.43,1.31-0.65,2.76-0.65,4.35c0,1.62,0.22,3.08,0.65,4.37c0.43,1.29,1.04,2.4,1.84,3.33
		c0.8,0.93,1.75,1.64,2.86,2.14c1.11,0.5,2.36,0.74,3.74,0.74C-326.54,6.38-324.89,5.95-323.51,5.1 M-362.24,5.91l3.65-13.64
		l2.59-10.04h0.08l2.51,10.04l3.57,13.64h3.65l7.02-27.36h-3.37l-3.1,13.17l-2.35,10.19h-0.12l-2.55-10.19L-354-21.45h-3.76
		l-3.45,13.17l-2.55,10.23h-0.08l-2.27-10.23l-2.94-13.17h-3.49l6.66,27.36H-362.24z"/>
	<g>
		<rect x="-387.44" y="-166.58" width="283.46" height="98.49"/>
		<path class="st1" d="M-129.59-138.01v-4.94l-0.08-3.25h0.16l3.25,6.08l3.21-6.08h0.16l-0.04,3.25v4.94h1.8v-10.94h-2.35
			l-2.67,5.21h-0.12l-2.7-5.21h-2.47v10.94H-129.59z M-136.96-138.01v-9.17h3.49v-1.76h-8.98v1.76h3.53v9.17H-136.96z
			 M-149.4-138.04c0.98,1.08,1.47,2.51,1.47,4.3v0.43h-11.17v-0.27c0-0.88,0.14-1.69,0.43-2.44c0.29-0.74,0.69-1.38,1.2-1.93
			c0.51-0.55,1.12-0.97,1.82-1.27c0.71-0.3,1.49-0.45,2.35-0.45C-151.68-139.65-150.38-139.11-149.4-138.04 M-148.37-122.39
			c1.38-0.85,2.4-1.98,3.06-3.37l-2.23-1.62c-0.52,1.12-1.26,1.99-2.21,2.59c-0.95,0.6-2.07,0.9-3.35,0.9
			c-0.94,0-1.78-0.16-2.53-0.47c-0.74-0.31-1.37-0.74-1.88-1.29c-0.51-0.55-0.9-1.2-1.18-1.94c-0.27-0.74-0.41-1.55-0.41-2.41v-0.94
			h14.54v-1.48c0-1.43-0.2-2.75-0.61-3.95c-0.41-1.2-0.99-2.23-1.74-3.11c-0.76-0.87-1.67-1.56-2.74-2.05
			c-1.07-0.49-2.29-0.74-3.65-0.74c-1.39,0-2.63,0.25-3.74,0.74c-1.11,0.5-2.06,1.21-2.86,2.14c-0.8,0.93-1.41,2.05-1.84,3.35
			c-0.43,1.31-0.65,2.76-0.65,4.35c0,1.62,0.22,3.08,0.65,4.37c0.43,1.29,1.04,2.4,1.84,3.33c0.8,0.93,1.75,1.64,2.86,2.14
			c1.11,0.5,2.36,0.74,3.74,0.74C-151.4-121.11-149.75-121.54-148.37-122.39 M-165.06-121.58v-2.78h-2.98v-26.22h-3.14v25.75
			c0,0.94,0.28,1.72,0.84,2.33c0.56,0.61,1.39,0.92,2.49,0.92H-165.06z M-187.19-124.17c-0.64-0.18-1.2-0.45-1.67-0.81
			c-0.47-0.35-0.84-0.79-1.12-1.3s-0.41-1.1-0.41-1.75v-7.56c0-0.55,0.14-1.07,0.41-1.56c0.27-0.49,0.65-0.9,1.12-1.24
			c0.47-0.34,1.03-0.61,1.67-0.81c0.64-0.2,1.31-0.3,2.02-0.3c1.78,0,3.18,0.56,4.19,1.67c1.02,1.12,1.53,2.58,1.53,4.39v3.47
			c0,1.81-0.51,3.28-1.53,4.39c-1.02,1.12-2.42,1.67-4.19,1.67C-185.88-123.89-186.55-123.99-187.19-124.17 M-193.52-113.74h3.14
			v-11.1h0.16c1.2,2.48,3.18,3.73,5.92,3.73c1.25,0,2.39-0.25,3.41-0.74c1.02-0.5,1.89-1.2,2.61-2.12c0.72-0.91,1.27-2.02,1.65-3.33
			c0.38-1.31,0.57-2.77,0.57-4.39c0-1.62-0.19-3.08-0.57-4.39c-0.38-1.31-0.93-2.42-1.65-3.33c-0.72-0.91-1.59-1.62-2.61-2.12
			c-1.02-0.5-2.16-0.74-3.41-0.74c-1.41,0-2.62,0.3-3.63,0.91c-1.01,0.61-1.77,1.55-2.29,2.81h-0.16v-3.26h-3.14V-113.74z
			 M-211.59-125.46c-1.07-1.04-1.61-2.64-1.61-4.78v-2.9c0-2.14,0.54-3.74,1.61-4.78c1.07-1.04,2.46-1.57,4.16-1.57
			c1.7,0,3.08,0.52,4.16,1.57c1.07,1.05,1.61,2.64,1.61,4.78v2.9c0,2.14-0.54,3.74-1.61,4.78c-1.07,1.05-2.46,1.57-4.16,1.57
			C-209.14-123.89-210.52-124.42-211.59-125.46 M-203.73-121.86c1.11-0.5,2.07-1.21,2.88-2.14c0.81-0.93,1.44-2.04,1.88-3.33
			c0.44-1.29,0.67-2.75,0.67-4.37c0-1.59-0.22-3.04-0.67-4.35c-0.44-1.31-1.07-2.42-1.88-3.35c-0.81-0.93-1.77-1.64-2.88-2.14
			c-1.11-0.5-2.35-0.74-3.7-0.74c-1.36,0-2.6,0.25-3.72,0.74c-1.12,0.5-2.08,1.21-2.88,2.14c-0.8,0.93-1.42,2.05-1.86,3.35
			c-0.44,1.31-0.67,2.76-0.67,4.35c0,1.62,0.22,3.08,0.67,4.37c0.44,1.29,1.06,2.4,1.86,3.33c0.8,0.93,1.76,1.64,2.88,2.14
			c1.12,0.5,2.36,0.74,3.72,0.74C-206.08-121.11-204.84-121.36-203.73-121.86 M-224.7-138.04c0.98,1.08,1.47,2.51,1.47,4.3v0.43
			h-11.17v-0.27c0-0.88,0.14-1.69,0.43-2.44c0.29-0.74,0.69-1.38,1.2-1.93c0.51-0.55,1.12-0.97,1.82-1.27
			c0.71-0.3,1.49-0.45,2.35-0.45C-226.99-139.65-225.68-139.11-224.7-138.04 M-223.67-122.39c1.38-0.85,2.4-1.98,3.06-3.37
			l-2.23-1.62c-0.52,1.12-1.26,1.99-2.21,2.59c-0.95,0.6-2.07,0.9-3.35,0.9c-0.94,0-1.78-0.16-2.53-0.47
			c-0.74-0.31-1.37-0.74-1.88-1.29c-0.51-0.55-0.9-1.2-1.18-1.94c-0.27-0.74-0.41-1.55-0.41-2.41v-0.94h14.54v-1.48
			c0-1.43-0.2-2.75-0.61-3.95c-0.41-1.2-0.99-2.23-1.74-3.11c-0.76-0.87-1.67-1.56-2.74-2.05c-1.07-0.49-2.29-0.74-3.65-0.74
			c-1.39,0-2.63,0.25-3.74,0.74c-1.11,0.5-2.06,1.21-2.86,2.14c-0.8,0.93-1.41,2.05-1.84,3.35c-0.43,1.31-0.65,2.76-0.65,4.35
			c0,1.62,0.22,3.08,0.65,4.37c0.43,1.29,1.04,2.4,1.84,3.33c0.8,0.93,1.75,1.64,2.86,2.14c1.11,0.5,2.36,0.74,3.74,0.74
			C-226.7-121.11-225.05-121.54-223.67-122.39 M-252.22-124.17c-0.64-0.18-1.2-0.45-1.67-0.81c-0.47-0.35-0.84-0.79-1.12-1.3
			s-0.41-1.1-0.41-1.75v-7.56c0-0.55,0.14-1.07,0.41-1.56c0.27-0.49,0.65-0.9,1.12-1.24c0.47-0.34,1.03-0.61,1.67-0.81
			c0.64-0.2,1.31-0.3,2.02-0.3c1.78,0,3.18,0.56,4.19,1.67c1.02,1.12,1.53,2.58,1.53,4.39v3.47c0,1.81-0.51,3.28-1.53,4.39
			c-1.02,1.12-2.42,1.67-4.19,1.67C-250.91-123.89-251.58-123.99-252.22-124.17 M-258.55-113.74h3.14v-11.1h0.16
			c1.2,2.48,3.18,3.73,5.92,3.73c1.25,0,2.39-0.25,3.41-0.74c1.02-0.5,1.89-1.2,2.61-2.12c0.72-0.91,1.27-2.02,1.65-3.33
			c0.38-1.31,0.57-2.77,0.57-4.39c0-1.62-0.19-3.08-0.57-4.39c-0.38-1.31-0.93-2.42-1.65-3.33c-0.72-0.91-1.59-1.62-2.61-2.12
			c-1.02-0.5-2.16-0.74-3.41-0.74c-1.41,0-2.62,0.3-3.63,0.91c-1.01,0.61-1.77,1.55-2.29,2.81h-0.16v-3.26h-3.14V-113.74z
			 M-268.18-138.04c0.98,1.08,1.47,2.51,1.47,4.3v0.43h-11.17v-0.27c0-0.88,0.14-1.69,0.43-2.44c0.29-0.74,0.69-1.38,1.2-1.93
			c0.51-0.55,1.12-0.97,1.82-1.27c0.71-0.3,1.49-0.45,2.35-0.45C-270.46-139.65-269.16-139.11-268.18-138.04 M-267.14-122.39
			c1.38-0.85,2.4-1.98,3.06-3.37l-2.23-1.62c-0.52,1.12-1.26,1.99-2.21,2.59c-0.95,0.6-2.07,0.9-3.35,0.9
			c-0.94,0-1.78-0.16-2.53-0.47c-0.74-0.31-1.37-0.74-1.88-1.29c-0.51-0.55-0.9-1.2-1.18-1.94c-0.27-0.74-0.41-1.55-0.41-2.41v-0.94
			h14.54v-1.48c0-1.43-0.2-2.75-0.61-3.95c-0.41-1.2-0.99-2.23-1.74-3.11c-0.76-0.87-1.67-1.56-2.74-2.05
			c-1.07-0.49-2.29-0.74-3.65-0.74c-1.39,0-2.63,0.25-3.74,0.74c-1.11,0.5-2.06,1.21-2.86,2.14c-0.8,0.93-1.41,2.05-1.84,3.35
			c-0.43,1.31-0.65,2.76-0.65,4.35c0,1.62,0.22,3.08,0.65,4.37c0.43,1.29,1.04,2.4,1.84,3.33c0.8,0.93,1.75,1.64,2.86,2.14
			c1.11,0.5,2.36,0.74,3.74,0.74C-270.17-121.11-268.52-121.54-267.14-122.39 M-301.55-121.58h3.14v-14.06
			c0-0.65,0.14-1.22,0.41-1.71c0.27-0.48,0.65-0.88,1.12-1.2c0.47-0.31,1-0.55,1.59-0.71c0.59-0.16,1.2-0.24,1.82-0.24
			c3.06,0,4.59,1.82,4.59,5.46v12.45h3.14v-12.98c0-2.46-0.61-4.36-1.82-5.7c-1.22-1.35-2.87-2.02-4.96-2.02
			c-1.52,0-2.72,0.34-3.63,1.01c-0.9,0.67-1.6,1.58-2.1,2.72h-0.16v-12.04h-3.14V-121.58z M-306.53-121.58v-2.78h-4.12v-14.66h4.43
			v-2.78h-4.43v-5.61h-2.82v3.76c0,0.68-0.12,1.16-0.37,1.43c-0.25,0.27-0.71,0.41-1.39,0.41h-1.88v2.78h3.33v14.12
			c0,0.99,0.28,1.79,0.84,2.41c0.56,0.61,1.39,0.92,2.49,0.92H-306.53z M-324.55-138.04c0.98,1.08,1.47,2.51,1.47,4.3v0.43h-11.17
			v-0.27c0-0.88,0.14-1.69,0.43-2.44c0.29-0.74,0.69-1.38,1.2-1.93c0.51-0.55,1.12-0.97,1.82-1.27c0.71-0.3,1.49-0.45,2.35-0.45
			C-326.83-139.65-325.53-139.11-324.55-138.04 M-323.51-122.39c1.38-0.85,2.4-1.98,3.06-3.37l-2.23-1.62
			c-0.52,1.12-1.26,1.99-2.21,2.59c-0.95,0.6-2.07,0.9-3.35,0.9c-0.94,0-1.78-0.16-2.53-0.47c-0.74-0.31-1.37-0.74-1.88-1.29
			c-0.51-0.55-0.9-1.2-1.18-1.94c-0.27-0.74-0.41-1.55-0.41-2.41v-0.94h14.54v-1.48c0-1.43-0.2-2.75-0.61-3.95
			c-0.41-1.2-0.99-2.23-1.74-3.11c-0.76-0.87-1.67-1.56-2.74-2.05c-1.07-0.49-2.29-0.74-3.65-0.74c-1.39,0-2.63,0.25-3.74,0.74
			c-1.11,0.5-2.06,1.21-2.86,2.14c-0.8,0.93-1.41,2.05-1.84,3.35c-0.43,1.31-0.65,2.76-0.65,4.35c0,1.62,0.22,3.08,0.65,4.37
			c0.43,1.29,1.04,2.4,1.84,3.33c0.8,0.93,1.75,1.64,2.86,2.14c1.11,0.5,2.36,0.74,3.74,0.74
			C-326.54-121.11-324.89-121.54-323.51-122.39 M-362.24-121.58l3.65-13.64l2.59-10.04h0.08l2.51,10.04l3.57,13.64h3.65l7.02-27.36
			h-3.37l-3.1,13.17l-2.35,10.19h-0.12l-2.55-10.19l-3.33-13.17h-3.76l-3.45,13.17l-2.55,10.23h-0.08l-2.27-10.23l-2.94-13.17h-3.49
			l6.66,27.36H-362.24z"/>
	</g>
	<rect x="-387.87" y="185.25" style="fill:none;" width="297.39" height="56.74"/>
	<text transform="matrix(1 0 0 1 -387.8736 191.1709)"><tspan x="0" y="0" style="font-family:'IBMPlexSans'; font-size:8px;">Font:</tspan><tspan x="0" y="9.59" style="font-family:'IBMPlexSans'; font-size:8px;">IBM Plex Sans</tspan><tspan x="0" y="28.77" style="font-family:'IBMPlexSans'; font-size:8px;">→ Google Fonts:</tspan><tspan x="0" y="38.36" style="font-family:'IBMPlexSans'; font-size:8px;">https://fonts.google.com/specimen/IBM+Plex+Sans?query=ibm#standard-styles</tspan></text>
	<path d="M243.33,12.8V7.87l-0.08-3.25h0.16l3.25,6.08l3.21-6.08h0.16L250,7.87v4.94h1.8V1.87h-2.35l-2.67,5.21h-0.12l-2.7-5.21
		h-2.47V12.8H243.33z M235.96,12.8V3.63h3.49V1.87h-8.98v1.76H234v9.17H235.96z M223.52,12.77c0.98,1.08,1.47,2.51,1.47,4.3v0.43
		h-11.17v-0.27c0-0.88,0.14-1.69,0.43-2.44c0.29-0.74,0.69-1.38,1.2-1.93c0.51-0.55,1.12-0.97,1.82-1.27
		c0.71-0.3,1.49-0.45,2.35-0.45C221.24,11.16,222.54,11.7,223.52,12.77 M224.56,28.42c1.38-0.85,2.4-1.98,3.06-3.37l-2.23-1.62
		c-0.52,1.12-1.26,1.99-2.21,2.59c-0.95,0.6-2.07,0.9-3.35,0.9c-0.94,0-1.78-0.16-2.53-0.47c-0.74-0.31-1.37-0.74-1.88-1.29
		c-0.51-0.55-0.9-1.2-1.18-1.94c-0.27-0.74-0.41-1.55-0.41-2.41v-0.94h14.54v-1.48c0-1.43-0.2-2.75-0.61-3.95
		c-0.41-1.2-0.99-2.23-1.74-3.11c-0.76-0.87-1.67-1.56-2.74-2.05c-1.07-0.49-2.29-0.74-3.65-0.74c-1.39,0-2.63,0.25-3.74,0.74
		c-1.11,0.5-2.06,1.21-2.86,2.14c-0.8,0.93-1.41,2.05-1.84,3.35c-0.43,1.31-0.65,2.76-0.65,4.35c0,1.62,0.22,3.08,0.65,4.37
		c0.43,1.29,1.04,2.4,1.84,3.33c0.8,0.93,1.75,1.64,2.86,2.14c1.11,0.5,2.36,0.74,3.74,0.74C221.52,29.7,223.17,29.27,224.56,28.42
		 M207.86,29.23v-2.78h-2.98V0.22h-3.14v25.75c0,0.94,0.28,1.72,0.84,2.33c0.56,0.61,1.39,0.92,2.49,0.92H207.86z M185.73,26.64
		c-0.64-0.18-1.2-0.45-1.67-0.81c-0.47-0.35-0.84-0.79-1.12-1.3c-0.27-0.51-0.41-1.1-0.41-1.75v-7.56c0-0.55,0.14-1.07,0.41-1.56
		c0.27-0.49,0.65-0.9,1.12-1.24c0.47-0.34,1.03-0.61,1.67-0.81c0.64-0.2,1.31-0.3,2.02-0.3c1.78,0,3.18,0.56,4.19,1.67
		c1.02,1.12,1.53,2.58,1.53,4.39v3.47c0,1.81-0.51,3.28-1.53,4.39c-1.02,1.12-2.42,1.67-4.19,1.67
		C187.04,26.92,186.37,26.82,185.73,26.64 M179.4,37.07h3.14v-11.1h0.16c1.2,2.48,3.18,3.73,5.92,3.73c1.25,0,2.39-0.25,3.41-0.74
		c1.02-0.5,1.89-1.2,2.61-2.12c0.72-0.91,1.27-2.02,1.65-3.33c0.38-1.31,0.57-2.77,0.57-4.39c0-1.62-0.19-3.08-0.57-4.39
		c-0.38-1.31-0.93-2.42-1.65-3.33c-0.72-0.91-1.59-1.62-2.61-2.12c-1.02-0.5-2.16-0.74-3.41-0.74c-1.41,0-2.62,0.3-3.63,0.91
		c-1.01,0.61-1.77,1.55-2.29,2.81h-0.16V9h-3.14V37.07z M161.33,25.35c-1.07-1.04-1.61-2.64-1.61-4.78v-2.9
		c0-2.14,0.54-3.74,1.61-4.78c1.07-1.04,2.46-1.57,4.16-1.57c1.7,0,3.08,0.52,4.16,1.57c1.07,1.05,1.61,2.64,1.61,4.78v2.9
		c0,2.14-0.54,3.74-1.61,4.78c-1.07,1.05-2.46,1.57-4.16,1.57C163.78,26.92,162.4,26.39,161.33,25.35 M169.19,28.95
		c1.11-0.5,2.07-1.21,2.88-2.14c0.81-0.93,1.44-2.04,1.88-3.33c0.44-1.29,0.67-2.75,0.67-4.37c0-1.59-0.22-3.04-0.67-4.35
		c-0.44-1.31-1.07-2.42-1.88-3.35c-0.81-0.93-1.77-1.64-2.88-2.14c-1.11-0.5-2.35-0.74-3.7-0.74c-1.36,0-2.6,0.25-3.72,0.74
		c-1.12,0.5-2.08,1.21-2.88,2.14c-0.8,0.93-1.42,2.05-1.86,3.35c-0.44,1.31-0.67,2.76-0.67,4.35c0,1.62,0.22,3.08,0.67,4.37
		c0.44,1.29,1.06,2.4,1.86,3.33c0.8,0.93,1.76,1.64,2.88,2.14c1.12,0.5,2.36,0.74,3.72,0.74C166.84,29.7,168.08,29.45,169.19,28.95
		 M148.22,12.77c0.98,1.08,1.47,2.51,1.47,4.3v0.43h-11.17v-0.27c0-0.88,0.14-1.69,0.43-2.44c0.29-0.74,0.69-1.38,1.2-1.93
		c0.51-0.55,1.12-0.97,1.82-1.27c0.71-0.3,1.49-0.45,2.35-0.45C145.94,11.16,147.24,11.7,148.22,12.77 M149.25,28.42
		c1.38-0.85,2.4-1.98,3.06-3.37l-2.23-1.62c-0.52,1.12-1.26,1.99-2.21,2.59c-0.95,0.6-2.07,0.9-3.35,0.9
		c-0.94,0-1.78-0.16-2.53-0.47c-0.74-0.31-1.37-0.74-1.88-1.29c-0.51-0.55-0.9-1.2-1.18-1.94c-0.27-0.74-0.41-1.55-0.41-2.41v-0.94
		h14.54v-1.48c0-1.43-0.2-2.75-0.61-3.95c-0.41-1.2-0.99-2.23-1.74-3.11c-0.76-0.87-1.67-1.56-2.74-2.05
		c-1.07-0.49-2.29-0.74-3.65-0.74c-1.39,0-2.63,0.25-3.74,0.74c-1.11,0.5-2.06,1.21-2.86,2.14c-0.8,0.93-1.41,2.05-1.84,3.35
		c-0.43,1.31-0.65,2.76-0.65,4.35c0,1.62,0.22,3.08,0.65,4.37c0.43,1.29,1.04,2.4,1.84,3.33c0.8,0.93,1.75,1.64,2.86,2.14
		c1.11,0.5,2.36,0.74,3.74,0.74C146.22,29.7,147.87,29.27,149.25,28.42 M120.7,26.64c-0.64-0.18-1.2-0.45-1.67-0.81
		c-0.47-0.35-0.84-0.79-1.12-1.3c-0.27-0.51-0.41-1.1-0.41-1.75v-7.56c0-0.55,0.14-1.07,0.41-1.56c0.27-0.49,0.65-0.9,1.12-1.24
		c0.47-0.34,1.03-0.61,1.67-0.81c0.64-0.2,1.31-0.3,2.02-0.3c1.78,0,3.18,0.56,4.19,1.67c1.02,1.12,1.53,2.58,1.53,4.39v3.47
		c0,1.81-0.51,3.28-1.53,4.39c-1.02,1.12-2.42,1.67-4.19,1.67C122.01,26.92,121.34,26.82,120.7,26.64 M114.37,37.07h3.14v-11.1h0.16
		c1.2,2.48,3.18,3.73,5.92,3.73c1.25,0,2.39-0.25,3.41-0.74c1.02-0.5,1.89-1.2,2.61-2.12c0.72-0.91,1.27-2.02,1.65-3.33
		c0.38-1.31,0.57-2.77,0.57-4.39c0-1.62-0.19-3.08-0.57-4.39c-0.38-1.31-0.93-2.42-1.65-3.33c-0.72-0.91-1.59-1.62-2.61-2.12
		c-1.02-0.5-2.16-0.74-3.41-0.74c-1.41,0-2.62,0.3-3.63,0.91c-1.01,0.61-1.77,1.55-2.29,2.81h-0.16V9h-3.14V37.07z M104.74,12.77
		c0.98,1.08,1.47,2.51,1.47,4.3v0.43H95.04v-0.27c0-0.88,0.14-1.69,0.43-2.44c0.29-0.74,0.69-1.38,1.2-1.93
		c0.51-0.55,1.12-0.97,1.82-1.27c0.71-0.3,1.49-0.45,2.35-0.45C102.46,11.16,103.76,11.7,104.74,12.77 M105.78,28.42
		c1.38-0.85,2.4-1.98,3.06-3.37l-2.23-1.62c-0.52,1.12-1.26,1.99-2.21,2.59c-0.95,0.6-2.07,0.9-3.35,0.9
		c-0.94,0-1.78-0.16-2.53-0.47c-0.74-0.31-1.37-0.74-1.88-1.29c-0.51-0.55-0.9-1.2-1.18-1.94c-0.27-0.74-0.41-1.55-0.41-2.41v-0.94
		h14.54v-1.48c0-1.43-0.2-2.75-0.61-3.95c-0.41-1.2-0.99-2.23-1.74-3.11c-0.76-0.87-1.67-1.56-2.74-2.05
		c-1.07-0.49-2.29-0.74-3.65-0.74c-1.39,0-2.63,0.25-3.74,0.74c-1.11,0.5-2.06,1.21-2.86,2.14c-0.8,0.93-1.41,2.05-1.84,3.35
		c-0.43,1.31-0.65,2.76-0.65,4.35c0,1.62,0.22,3.08,0.65,4.37c0.43,1.29,1.04,2.4,1.84,3.33c0.8,0.93,1.75,1.64,2.86,2.14
		c1.11,0.5,2.36,0.74,3.74,0.74C102.75,29.7,104.4,29.27,105.78,28.42 M71.37,29.23h3.14V15.16c0-0.65,0.14-1.22,0.41-1.71
		c0.27-0.48,0.65-0.88,1.12-1.2c0.47-0.31,1-0.55,1.59-0.71c0.59-0.16,1.2-0.24,1.82-0.24c3.06,0,4.59,1.82,4.59,5.46v12.45h3.14
		V16.25c0-2.46-0.61-4.36-1.82-5.7c-1.22-1.35-2.87-2.02-4.96-2.02c-1.52,0-2.72,0.34-3.63,1.01c-0.9,0.67-1.6,1.58-2.1,2.72H74.5
		V0.22h-3.14V29.23z M66.39,29.23v-2.78h-4.12V11.79h4.43V9h-4.43V3.4h-2.82v3.76c0,0.68-0.12,1.16-0.37,1.43
		C58.83,8.86,58.36,9,57.69,9H55.8v2.78h3.33V25.9c0,0.99,0.28,1.79,0.84,2.41c0.56,0.61,1.39,0.92,2.49,0.92H66.39z M48.38,12.77
		c0.98,1.08,1.47,2.51,1.47,4.3v0.43H38.67v-0.27c0-0.88,0.14-1.69,0.43-2.44c0.29-0.74,0.69-1.38,1.2-1.93s1.12-0.97,1.82-1.27
		c0.71-0.3,1.49-0.45,2.35-0.45C46.1,11.16,47.4,11.7,48.38,12.77 M49.41,28.42c1.38-0.85,2.4-1.98,3.06-3.37l-2.23-1.62
		c-0.52,1.12-1.26,1.99-2.21,2.59c-0.95,0.6-2.07,0.9-3.35,0.9c-0.94,0-1.78-0.16-2.53-0.47c-0.74-0.31-1.37-0.74-1.88-1.29
		s-0.9-1.2-1.18-1.94c-0.27-0.74-0.41-1.55-0.41-2.41v-0.94h14.54v-1.48c0-1.43-0.2-2.75-0.61-3.95c-0.41-1.2-0.99-2.23-1.74-3.11
		c-0.76-0.87-1.67-1.56-2.74-2.05c-1.07-0.49-2.29-0.74-3.65-0.74c-1.39,0-2.63,0.25-3.74,0.74c-1.11,0.5-2.06,1.21-2.86,2.14
		c-0.8,0.93-1.41,2.05-1.84,3.35c-0.43,1.31-0.65,2.76-0.65,4.35c0,1.62,0.22,3.08,0.65,4.37c0.43,1.29,1.04,2.4,1.84,3.33
		c0.8,0.93,1.75,1.64,2.86,2.14c1.11,0.5,2.36,0.74,3.74,0.74C46.38,29.7,48.03,29.27,49.41,28.42 M10.69,29.23l3.65-13.64
		l2.59-10.04H17l2.51,10.04l3.57,13.64h3.65l7.02-27.36h-3.37l-3.1,13.17l-2.35,10.19H24.8l-2.55-10.19L18.92,1.87h-3.76L11.7,15.04
		L9.16,25.27H9.08L6.8,15.04L3.86,1.87H0.38l6.66,27.36H10.69z"/>
</g>
</svg>
